grf
version=1
nRows=59
nColumns=19
inDegrees=yes
endheader
time	ground_force_1_vx	ground_force_1_vy	ground_force_1_vz	ground_force_1_px	ground_force_1_py	ground_force_1_pz	ground_moment_1_mx	ground_moment_1_my	ground_moment_1_mz	ground_force_2_vx	ground_force_2_vy	ground_force_2_vz	ground_force_2_px	ground_force_2_py	ground_force_2_pz	ground_moment_2_mx	ground_moment_2_my	ground_moment_2_mz
0.000000	8.044323	409.769462	-58.707000	0.169822	0.000000	-1.026521	0.000000	3.102343	0.000000	-4.350825	455.600500	61.218028	0.205153	0.000000	-1.438424	-0.000000	-3.712060	-0.000000
0.001000	8.010493	409.540540	-58.628719	0.170110	0.000000	-1.024625	0.000000	3.106302	0.000000	-4.439669	455.603379	61.243415	0.204347	0.000000	-1.438998	-0.000000	-3.709602	-0.000000
0.002000	7.976917	409.321717	-58.553652	0.171219	0.000000	-1.026147	0.000000	3.110369	0.000000	-4.526482	455.603297	61.267922	0.205533	0.000000	-1.439058	-0.000000	-3.707614	-0.000000
0.003000	7.943844	409.115625	-58.482396	0.168880	0.000000	-1.026052	0.000000	3.114527	0.000000	-4.610276	455.598150	61.291574	0.204773	0.000000	-1.437293	-0.000000	-3.706083	-0.000000
0.004000	7.911434	408.924767	-58.415481	0.172369	0.000000	-1.029522	0.000000	3.118766	0.000000	-4.690325	455.586144	61.314478	0.204320	0.000000	-1.437947	-0.000000	-3.704974	-0.000000
0.005000	7.879780	408.751408	-58.353342	0.170300	0.000000	-1.025474	0.000000	3.123079	0.000000	-4.766152	455.565532	61.336741	0.202953	0.000000	-1.441135	-0.000000	-3.704238	-0.000000
0.006000	7.848907	408.597455	-58.296309	0.171529	0.000000	-1.028664	0.000000	3.127452	0.000000	-4.837496	455.534899	61.358408	0.205246	0.000000	-1.435983	-0.000000	-3.703825	-0.000000
0.007000	7.818776	408.464318	-58.244593	0.171709	0.000000	-1.024473	0.000000	3.131879	0.000000	-4.904280	455.493584	61.379486	0.205000	0.000000	-1.437482	-0.000000	-3.703683	-0.000000
0.008000	7.789343	408.352721	-58.198223	0.172537	0.000000	-1.026629	0.000000	3.136369	0.000000	-4.966593	455.441693	61.399991	0.206729	0.000000	-1.445829	-0.000000	-3.703748	-0.000000
0.009000	7.760581	408.262491	-58.157039	0.169742	0.000000	-1.028443	0.000000	3.140930	0.000000	-5.024615	455.380039	61.419963	0.205625	0.000000	-1.435516	-0.000000	-3.703949	-0.000000
0.010000	7.732401	408.192406	-58.120783	0.172035	0.000000	-1.025691	0.000000	3.145541	0.000000	-5.078509	455.310063	61.439427	0.205521	0.000000	-1.437838	-0.000000	-3.704222	-0.000000
0.011000	7.704633	408.140276	-58.089185	0.169854	0.000000	-1.024991	0.000000	3.150156	0.000000	-5.128440	455.233644	61.458352	0.203104	0.000000	-1.440555	-0.000000	-3.704510	-0.000000
0.012000	7.677096	408.103325	-58.062017	0.173036	0.000000	-1.025635	0.000000	3.154704	0.000000	-5.174624	455.153040	61.476659	0.204925	0.000000	-1.433877	0.000000	-3.704744	-0.000000
0.013000	7.649620	408.078826	-58.039111	0.170965	0.000000	-1.023914	0.000000	3.159085	0.000000	-5.217317	455.070607	61.494252	0.203154	0.000000	-1.438912	0.000000	-3.704843	-0.000000
0.014000	7.622065	408.064644	-58.020376	0.172814	0.000000	-1.026911	0.000000	3.163164	0.000000	-5.256832	454.988147	61.511057	0.206177	0.000000	-1.437845	0.000000	-3.704711	-0.000000
0.015000	7.594344	408.059280	-58.005833	0.168205	0.000000	-1.029041	0.000000	3.166795	0.000000	-5.293565	454.906740	61.527040	0.207221	0.000000	-1.439387	0.000000	-3.704235	-0.000000
0.016000	7.566439	408.061558	-57.995580	0.171713	0.000000	-1.023173	0.000000	3.169851	0.000000	-5.327947	454.827391	61.542197	0.198923	0.000000	-1.435034	0.000000	-3.703292	-0.000000
0.017000	7.538411	408.070154	-57.989665	0.171526	0.000000	-1.031961	0.000000	3.172253	0.000000	-5.360338	454.751319	61.556530	0.204045	0.000000	-1.438899	0.000000	-3.701790	-0.000000
0.018000	7.510401	408.082929	-57.987962	0.170346	0.000000	-1.027310	0.000000	3.173970	0.000000	-5.390976	454.679633	61.570049	0.204144	0.000000	-1.439548	0.000000	-3.699717	-0.000000
0.019000	7.482548	408.096549	-57.990127	0.170557	0.000000	-1.027961	0.000000	3.174986	0.000000	-5.420019	454.613531	61.582776	0.204809	0.000000	-1.437588	0.000000	-3.697120	-0.000000
0.020000	7.454890	408.106978	-57.995666	0.169250	0.000000	-1.017608	0.000000	3.175280	0.000000	-5.447605	454.554712	61.594788	0.203118	0.000000	-1.437015	0.000000	-3.694057	-0.000000
0.021000	7.427349	408.110422	-58.004014	0.171041	0.000000	-1.025484	0.000000	3.174831	0.000000	-5.473870	454.505108	61.606252	0.202587	0.000000	-1.431606	0.000000	-3.690593	-0.000000
0.022000	7.399812	408.103977	-58.014561	0.170482	0.000000	-1.024810	0.000000	3.173617	0.000000	-5.498964	454.466159	61.617407	0.204308	0.000000	-1.436512	0.000000	-3.686816	-0.000000
0.023000	7.372234	408.085932	-58.026671	0.168732	0.000000	-1.024845	0.000000	3.171614	0.000000	-5.522981	454.438347	61.628477	0.204707	0.000000	-1.438130	0.000000	-3.682844	-0.000000
0.024000	7.344667	408.055789	-58.039744	0.167326	0.000000	-1.025245	0.000000	3.168807	0.000000	-5.545859	454.421306	61.639588	0.206197	0.000000	-1.436353	0.000000	-3.678832	-0.000000
0.025000	7.317280	408.013940	-58.053238	0.172657	0.000000	-1.025639	0.000000	3.165192	0.000000	-5.567374	454.413952	61.650721	0.204742	0.000000	-1.436032	0.000000	-3.674933	-0.000000
0.026000	7.290386	407.961234	-58.066657	0.169476	0.000000	-1.026953	0.000000	3.160801	0.000000	-5.587226	454.414444	61.661752	0.203457	0.000000	-1.436801	0.000000	-3.671273	-0.000000
0.027000	7.264426	407.898649	-58.079592	0.170510	0.000000	-1.027971	0.000000	3.155717	0.000000	-5.605084	454.420553	61.672509	0.207876	0.000000	-1.438721	0.000000	-3.667943	-0.000000
0.028000	7.239893	407.827099	-58.091743	0.170081	0.000000	-1.025394	0.000000	3.150059	0.000000	-5.620636	454.430156	61.682771	0.204517	0.000000	-1.437672	0.000000	-3.664999	-0.000000
0.029000	7.217225	407.747533	-58.102871	0.172088	0.000000	-1.027942	0.000000	3.143968	0.000000	-5.633636	454.441221	61.692271	0.205206	0.000000	-1.436047	0.000000	-3.662453	-0.000000
0.030000	7.196647	407.661270	-58.112763	0.169700	0.000000	-1.017891	0.000000	3.137590	0.000000	-5.643943	454.451602	61.700745	0.203622	0.000000	-1.437707	0.000000	-3.660275	-0.000000
0.031000	7.178088	407.570353	-58.121234	0.171229	0.000000	-1.025849	0.000000	3.131075	0.000000	-5.651568	454.459160	61.707965	0.205887	0.000000	-1.438356	0.000000	-3.658410	-0.000000
0.032000	7.161285	407.477622	-58.128216	0.170847	0.000000	-1.026235	0.000000	3.124561	0.000000	-5.656662	454.462199	61.713756	0.205257	0.000000	-1.437525	0.000000	-3.656795	-0.000000
0.033000	7.145932	407.386119	-58.133809	0.170661	0.000000	-1.024925	0.000000	3.118146	0.000000	-5.659389	454.459839	61.717996	0.205800	0.000000	-1.438311	0.000000	-3.655372	-0.000000
0.034000	7.131754	407.298393	-58.138199	0.169622	0.000000	-1.025857	0.000000	3.111902	0.000000	-5.659823	454.452026	61.720564	0.205030	0.000000	-1.437868	0.000000	-3.654073	-0.000000
0.035000	7.118512	407.216249	-58.141563	0.172429	0.000000	-1.027027	0.000000	3.105893	0.000000	-5.657918	454.439272	61.721286	0.206717	0.000000	-1.438114	0.000000	-3.652825	-0.000000
0.036000	7.105974	407.140742	-58.144055	0.170445	0.000000	-1.026978	0.000000	3.100172	0.000000	-5.653521	454.422508	61.719989	0.203435	0.000000	-1.436908	0.000000	-3.651543	-0.000000
0.037000	7.093907	407.072364	-58.145810	0.171726	0.000000	-1.026220	0.000000	3.094776	0.000000	-5.646402	454.403195	61.716644	0.206511	0.000000	-1.440395	0.000000	-3.650137	-0.000000
0.038000	7.082095	407.011264	-58.146923	0.172132	0.000000	-1.030053	0.000000	3.089728	0.000000	-5.636329	454.383143	61.711388	0.203914	0.000000	-1.436035	0.000000	-3.648524	-0.000000
0.039000	7.070344	406.957176	-58.147424	0.173857	0.000000	-1.027361	0.000000	3.085035	0.000000	-5.623190	454.363774	61.704384	0.204143	0.000000	-1.434363	0.000000	-3.646639	-0.000000
0.040000	7.058553	406.909387	-58.147248	0.171055	0.000000	-1.024341	0.000000	3.080698	0.000000	-5.607063	454.345636	61.695763	0.204035	0.000000	-1.435050	0.000000	-3.644452	-0.000000
0.041000	7.046774	406.867172	-58.146243	0.170419	0.000000	-1.023906	0.000000	3.076710	0.000000	-5.588118	454.328495	61.685678	0.204458	0.000000	-1.436299	0.000000	-3.641967	-0.000000
0.042000	7.035212	406.830314	-58.144214	0.172480	0.000000	-1.029573	0.000000	3.073072	0.000000	-5.566499	454.311428	61.674307	0.205750	0.000000	-1.438770	0.000000	-3.639218	-0.000000
0.043000	7.024166	406.799201	-58.141001	0.172148	0.000000	-1.025686	0.000000	3.069784	0.000000	-5.542281	454.292942	61.661882	0.204522	0.000000	-1.436816	0.000000	-3.636255	-0.000000
0.044000	7.013969	406.774753	-58.136549	0.172416	0.000000	-1.026110	0.000000	3.066842	0.000000	-5.515487	454.271349	61.648722	0.203529	0.000000	-1.435848	0.000000	-3.633144	-0.000000
0.045000	7.004996	406.758211	-58.130847	0.164515	0.000000	-1.028644	0.000000	3.064235	0.000000	-5.486129	454.245300	61.635204	0.202615	0.000000	-1.436018	0.000000	-3.629964	-0.000000
0.046000	6.997633	406.750266	-58.123842	0.171953	0.000000	-1.026735	0.000000	3.061960	0.000000	-5.454232	454.214314	61.621660	0.202313	0.000000	-1.435526	0.000000	-3.626804	-0.000000
0.047000	6.992203	406.750273	-58.115436	0.170497	0.000000	-1.025588	0.000000	3.060042	0.000000	-5.419816	454.178546	61.608332	0.204391	0.000000	-1.438054	-0.000000	-3.623768	-0.000000
0.048000	6.988910	406.756794	-58.105507	0.169829	0.000000	-1.025508	0.000000	3.058498	0.000000	-5.382876	454.137711	61.595366	0.206173	0.000000	-1.434945	-0.000000	-3.620969	-0.000000
0.049000	6.987831	406.768521	-58.093897	0.173284	0.000000	-1.026728	0.000000	3.057322	0.000000	-5.343429	454.090668	61.582834	0.206406	0.000000	-1.435803	-0.000000	-3.618514	-0.000000
0.050000	6.988947	406.784271	-58.080386	0.171606	0.000000	-1.023521	0.000000	3.056475	0.000000	-5.301640	454.036268	61.570767	0.204940	0.000000	-1.439198	-0.000000	-3.616463	-0.000000
0.051000	6.992265	406.802768	-58.064826	0.169378	0.000000	-1.028605	0.000000	3.055918	0.000000	-5.257839	453.974336	61.559188	0.205519	0.000000	-1.439730	-0.000000	-3.614818	-0.000000
0.052000	6.997929	406.822931	-58.047368	0.171007	0.000000	-1.026735	0.000000	3.055634	0.000000	-5.212396	453.905704	61.548107	0.199773	0.000000	-1.432958	-0.000000	-3.613557	-0.000000
0.053000	7.006206	406.844208	-58.028483	0.171345	0.000000	-1.024949	0.000000	3.055637	0.000000	-5.165632	453.831196	61.537522	0.205473	0.000000	-1.438124	-0.000000	-3.612682	-0.000000
0.054000	7.017364	406.866559	-58.008777	0.170141	0.000000	-1.033151	0.000000	3.055961	0.000000	-5.117827	453.750626	61.527416	0.204417	0.000000	-1.436924	-0.000000	-3.612225	-0.000000
0.055000	7.031573	406.890252	-57.988858	0.169941	0.000000	-1.026487	0.000000	3.056658	0.000000	-5.069234	453.662970	61.517786	0.206324	0.000000	-1.434832	-0.000000	-3.612236	-0.000000
0.056000	7.048858	406.915748	-57.969312	0.171635	0.000000	-1.026412	0.000000	3.057788	0.000000	-5.020129	453.567248	61.508644	0.205367	0.000000	-1.439844	-0.000000	-3.612760	-0.000000
0.057000	7.069072	406.943706	-57.950726	0.170971	0.000000	-1.026031	0.000000	3.059384	0.000000	-4.970848	453.463155	61.499976	0.203997	0.000000	-1.436642	-0.000000	-3.613814	-0.000000
0.058000	7.091871	406.974649	-57.933694	0.173078	0.000000	-1.031429	0.000000	3.061421	0.000000	-4.921766	453.351224	61.491702	0.204762	0.000000	-1.437159	-0.000000	-3.615396	-0.000000
